<?xml version="1.0" standalone="no"?>
<!DOCTYPE svg PUBLIC "-//W3C//DTD SVG 20010904//EN"
 "http://www.w3.org/TR/2001/REC-SVG-20010904/DTD/svg10.dtd">
<svg version="1.0" xmlns="http://www.w3.org/2000/svg"
 width="512.000000pt" height="512.000000pt" viewBox="0 0 512.000000 512.000000"
 preserveAspectRatio="xMidYMid meet">

<g transform="translate(0.000000,512.000000) scale(0.100000,-0.100000)"
fill="#000000" stroke="none">
<path d="M3760 5110 c-85 -15 -129 -31 -145 -53 -23 -33 -19 -74 11 -104 27
-27 35 -27 144 -4 25 6 66 10 92 11 61 0 101 32 101 80 0 24 -7 40 -27 57 -29
25 -83 29 -176 13z"/>
<path d="M4229 4961 c-46 -46 -39 -73 32 -139 82 -76 112 -120 213 -312 48
-91 95 -173 103 -182 26 -29 87 -24 112 8 12 15 21 36 21 47 0 23 -144 302
-205 398 -67 105 -181 209 -228 209 -10 0 -32 -13 -48 -29z"/>
<path d="M2980 4744 c-162 -85 -301 -162 -307 -171 -36 -47 4 -123 63 -123 40
0 601 297 627 332 34 46 -3 118 -60 118 -16 0 -153 -66 -323 -156z"/>
<path d="M3777 4734 c-27 -8 -251 -122 -499 -252 -494 -260 -517 -276 -570
-389 -39 -83 -47 -184 -21 -265 10 -31 122 -254 248 -495 208 -396 236 -444
290 -499 76 -77 146 -106 255 -107 41 -1 93 5 115 12 22 8 243 120 490 250
491 257 522 278 571 385 48 105 52 210 10 309 -15 36 -404 780 -458 874 -38
69 -116 137 -186 164 -74 28 -181 34 -245 13z m201 -170 c29 -14 61 -38 72
-54 40 -56 471 -886 481 -927 17 -65 -3 -133 -55 -188 -34 -37 -115 -83 -465
-266 -233 -122 -442 -229 -465 -237 -76 -26 -188 10 -234 76 -10 15 -122 223
-248 462 -206 393 -228 440 -232 492 -5 65 19 126 65 170 24 22 781 426 898
479 58 27 121 24 183 -7z"/>
<path d="M690 4479 c-78 -15 -113 -79 -71 -130 l19 -23 343 2 c393 3 391 3
397 79 3 34 -1 44 -24 62 -26 20 -36 21 -323 20 -163 -1 -316 -5 -341 -10z"/>
<path d="M288 4263 c-10 -2 -38 -31 -63 -65 -33 -44 -45 -69 -45 -94 0 -45 29
-74 75 -74 30 0 41 8 84 60 58 70 67 92 51 129 -16 40 -55 57 -102 44z"/>
<path d="M727 4109 c-100 -24 -202 -108 -254 -209 l-28 -55 0 -570 0 -570 33
-67 c40 -82 119 -157 200 -190 l57 -23 550 0 550 0 58 23 c76 31 164 113 202
189 l30 58 0 575 0 575 -28 57 c-39 79 -104 143 -185 181 l-67 32 -540 2
c-297 1 -557 -3 -578 -8z m1093 -159 c47 -13 106 -63 133 -113 22 -42 22 -44
22 -557 0 -575 0 -577 -70 -638 -72 -63 -67 -63 -635 -60 l-515 3 -45 25 c-24
14 -58 45 -75 68 l-30 44 -3 531 c-2 470 -1 537 13 574 19 48 83 109 130 122
42 13 1031 13 1075 1z"/>
<path d="M4775 4065 c-14 -13 -25 -36 -25 -50 0 -30 100 -235 125 -255 27 -23
85 -18 106 9 31 38 23 76 -36 187 -74 137 -116 164 -170 109z"/>
<path d="M92 3757 c-20 -22 -22 -33 -22 -159 0 -118 2 -139 19 -159 25 -31 83
-32 113 -1 20 19 23 35 26 127 5 123 -2 169 -29 196 -27 27 -80 25 -107 -4z"/>
<path d="M4926 3468 c-14 -14 -31 -48 -41 -82 -39 -140 -116 -248 -235 -332
-83 -58 -100 -77 -100 -114 0 -30 44 -70 77 -70 46 0 133 58 218 144 92 94
137 164 177 278 35 100 36 141 3 173 -30 31 -66 32 -99 3z"/>
<path d="M95 3125 l-25 -24 0 -1221 c0 -1361 -3 -1289 70 -1445 46 -100 110
-187 181 -247 63 -53 89 -68 119 -68 32 0 70 44 70 81 0 26 -13 43 -79 106
-90 84 -132 144 -170 241 l-26 67 -5 1243 -5 1244 -28 24 c-36 31 -71 31 -102
-1z"/>
<path d="M720 2054 c-109 -30 -199 -106 -248 -212 l-27 -57 0 -570 0 -570 29
-57 c39 -77 108 -144 186 -182 l65 -31 560 0 560 0 67 32 c79 37 147 104 186
183 l27 55 0 575 0 575 -30 58 c-38 76 -126 158 -202 189 -58 23 -58 23 -588
25 -443 2 -539 0 -585 -13z m1136 -171 c23 -12 53 -36 67 -52 52 -62 52 -68
52 -621 0 -513 0 -515 -22 -557 -27 -50 -86 -100 -133 -113 -47 -13 -1023 -13
-1071 0 -19 5 -54 26 -76 45 -75 64 -74 52 -71 651 l3 530 27 42 c16 23 39 49
53 58 66 43 76 44 615 41 510 -2 515 -2 556 -24z"/>
<path d="M2780 2054 c-106 -29 -195 -102 -247 -204 l-28 -55 0 -575 0 -575 28
-57 c38 -77 107 -144 187 -182 l65 -31 560 0 560 0 57 27 c76 35 153 109 192
183 l31 60 0 570 0 570 -33 67 c-40 82 -119 157 -200 190 -57 23 -58 23 -587
25 -443 2 -539 0 -585 -13z m1140 -174 c24 -14 58 -45 75 -68 l30 -44 3 -531
c3 -600 4 -588 -71 -652 -22 -19 -57 -40 -76 -45 -50 -14 -1024 -13 -1074 1
-47 13 -102 60 -130 113 -22 41 -22 45 -22 566 0 518 0 526 22 565 27 51 57
79 113 104 44 20 59 21 565 18 l520 -2 45 -25z"/>
<path d="M4429 894 c-22 -23 -24 -36 -30 -152 -7 -141 -29 -218 -88 -311 -47
-73 -151 -166 -231 -206 -133 -67 -94 -65 -1151 -65 -952 0 -956 0 -983 -21
-37 -29 -37 -89 1 -119 l26 -21 986 3 c1103 4 1025 -1 1186 77 153 75 271 198
345 356 51 107 70 200 70 334 0 106 -1 110 -26 130 -36 29 -75 27 -105 -5z"/>
<path d="M793 148 c-27 -13 -47 -59 -38 -88 15 -46 44 -60 126 -60 67 0 82 3
105 23 20 17 27 33 27 57 0 24 -7 40 -27 57 -23 20 -37 23 -99 22 -40 0 -82
-5 -94 -11z"/>
<path d="M1324 149 c-47 -24 -56 -87 -19 -124 23 -24 29 -25 160 -25 131 0
137 1 160 25 30 29 32 74 6 106 -18 23 -26 24 -153 26 -79 2 -142 -2 -154 -8z"/>
</g>
</svg>
