<?xml version="1.0" standalone="no"?>
<!DOCTYPE svg PUBLIC "-//W3C//DTD SVG 20010904//EN"
 "http://www.w3.org/TR/2001/REC-SVG-20010904/DTD/svg10.dtd">
<svg version="1.0" xmlns="http://www.w3.org/2000/svg"
 width="512.000000pt" height="512.000000pt" viewBox="0 0 512.000000 512.000000"
 preserveAspectRatio="xMidYMid meet">

<g transform="translate(0.000000,512.000000) scale(0.100000,-0.100000)"
fill="#000000" stroke="none">
<path d="M2412 4990 c-99 -26 -136 -48 -359 -214 -106 -79 -210 -150 -230
-159 -67 -29 -114 -35 -333 -47 -274 -14 -315 -22 -426 -75 -74 -36 -102 -57
-160 -117 -99 -105 -124 -164 -189 -442 -72 -304 -82 -324 -232 -468 -313
-299 -343 -338 -383 -494 -45 -174 -26 -257 131 -576 147 -297 144 -282 105
-606 -31 -256 -32 -296 -6 -396 27 -106 73 -188 150 -266 75 -76 132 -107 375
-210 193 -81 241 -107 290 -156 20 -19 95 -126 168 -237 74 -111 152 -221 175
-244 129 -132 338 -198 513 -164 34 7 150 40 258 74 188 58 200 61 301 61 101
0 113 -3 301 -61 244 -76 299 -87 397 -80 144 10 270 67 371 168 25 24 104
135 178 246 73 111 148 218 168 237 48 48 94 73 290 156 237 101 298 134 370
205 76 75 129 167 155 270 26 101 25 141 -6 397 -39 324 -42 309 105 606 157
319 176 402 131 576 -40 156 -69 194 -395 507 -79 76 -118 121 -136 160 -15
30 -51 160 -82 290 -69 295 -91 344 -202 454 -91 91 -174 138 -283 160 -37 7
-164 18 -282 25 -228 12 -292 21 -353 52 -22 11 -123 82 -225 158 -218 163
-254 184 -358 210 -96 25 -197 25 -292 0z m253 -154 c75 -20 100 -35 313 -193
109 -80 220 -156 247 -169 82 -38 168 -52 400 -64 121 -6 247 -18 280 -26 116
-29 218 -110 270 -218 13 -28 49 -157 80 -286 72 -307 92 -349 229 -485 56
-55 151 -148 212 -207 141 -137 183 -217 184 -354 0 -78 -22 -136 -144 -382
-153 -309 -154 -316 -110 -681 17 -139 24 -239 20 -280 -11 -128 -99 -258
-214 -319 -32 -17 -143 -68 -247 -112 -105 -45 -211 -95 -237 -111 -74 -48
-144 -132 -268 -325 -134 -208 -192 -272 -287 -317 -63 -29 -76 -32 -168 -31
-95 0 -111 3 -320 69 l-220 69 -125 0 -125 0 -220 -69 c-209 -66 -225 -69
-320 -69 -92 -1 -105 2 -168 31 -95 45 -153 109 -287 317 -127 198 -201 285
-281 333 -30 17 -146 71 -259 119 -113 48 -223 100 -246 115 -101 68 -171 188
-180 306 -4 44 3 143 20 279 44 358 43 367 -110 676 -62 125 -120 251 -129
280 -29 98 -12 223 42 315 14 25 74 91 132 146 58 56 151 147 207 202 137 136
157 179 229 485 31 129 67 258 80 286 53 108 154 190 270 218 33 8 161 20 285
26 232 12 329 29 407 69 22 11 128 85 236 165 108 80 206 150 219 157 84 46
210 60 303 35z"/>
<path d="M2434 4189 c-272 -19 -544 -113 -776 -268 -498 -333 -767 -882 -726
-1480 51 -764 639 -1391 1408 -1501 100 -15 334 -14 440 0 571 78 1061 455
1287 990 86 202 125 403 124 635 0 267 -51 484 -166 717 -299 603 -913 953
-1591 907z m331 -170 c562 -71 1050 -494 1211 -1049 53 -183 71 -434 44 -616
-95 -645 -589 -1146 -1230 -1250 -122 -20 -338 -20 -460 0 -641 103 -1135 605
-1230 1250 -15 101 -15 311 0 412 75 510 405 943 872 1146 253 109 505 143
793 107z"/>
<path d="M3147 3286 c-72 -27 -114 -65 -442 -400 -181 -185 -334 -336 -340
-336 -6 0 -75 66 -155 146 -80 80 -165 157 -190 172 -40 24 -55 27 -140 27
-113 0 -153 -17 -222 -94 -80 -89 -99 -215 -49 -322 15 -32 103 -127 314 -336
275 -274 295 -292 346 -307 74 -22 139 -20 208 5 55 21 86 50 523 492 255 258
475 483 488 500 28 40 52 117 52 173 0 101 -71 214 -164 261 -62 32 -170 41
-229 19z m190 -189 c38 -42 48 -73 38 -124 -6 -31 -61 -92 -375 -412 -506
-517 -558 -567 -598 -576 -81 -17 -88 -12 -369 268 -144 143 -269 275 -278
293 -29 62 -8 140 49 175 39 24 113 25 146 3 14 -10 106 -97 206 -195 150
-150 185 -179 209 -179 25 0 85 55 415 384 212 211 394 389 405 395 11 6 42
10 69 8 42 -4 55 -10 83 -40z"/>
</g>
</svg>
