<?xml version="1.0" standalone="no"?>
<!DOCTYPE svg PUBLIC "-//W3C//DTD SVG 20010904//EN"
 "http://www.w3.org/TR/2001/REC-SVG-20010904/DTD/svg10.dtd">
<svg version="1.0" xmlns="http://www.w3.org/2000/svg"
 width="512.000000pt" height="512.000000pt" viewBox="0 0 512.000000 512.000000"
 preserveAspectRatio="xMidYMid meet">

<g transform="translate(0.000000,512.000000) scale(0.100000,-0.100000)"
fill="#000000" stroke="none">
<path d="M3254 4230 c-252 -27 -505 -119 -714 -261 l-95 -65 -55 25 c-47 22
-69 26 -150 26 -138 0 -177 -20 -341 -182 -71 -69 -142 -147 -158 -172 -65
-103 -77 -233 -30 -341 l22 -51 -66 -67 -67 -68 0 -514 0 -515 102 -102 103
-103 -823 0 -822 0 0 -480 0 -480 80 0 80 0 0 80 0 80 1143 0 1142 0 80 -80
80 -81 730 3 c724 4 731 4 809 26 317 92 542 319 629 637 22 78 22 93 22 700
0 606 -1 623 -23 732 -43 211 -121 400 -243 583 -86 131 -282 325 -414 413
-308 203 -669 294 -1021 257z m321 -161 c640 -78 1141 -583 1215 -1225 8 -66
10 -283 8 -659 l-3 -560 -26 -77 c-41 -120 -93 -204 -183 -294 -90 -89 -174
-142 -294 -183 l-77 -26 -690 -3 -689 -3 -538 538 -538 538 0 445 0 446 388
385 c461 459 521 505 782 602 207 76 428 102 645 76z m-1278 -277 c8 -5 -63
-83 -216 -236 -206 -206 -229 -226 -234 -204 -12 42 -7 92 12 133 21 44 248
273 296 299 31 16 121 21 142 8z m-1823 -2124 c55 -16 138 -99 154 -154 28
-94 8 -169 -63 -239 -56 -57 -102 -75 -189 -75 l-56 0 0 240 0 240 56 0 c31 0
75 -5 98 -12z m1731 -228 l240 -240 -143 0 -142 0 0 80 0 80 -80 0 -80 0 0
-80 0 -80 -160 0 -160 0 0 160 0 160 -80 0 -80 0 0 -160 0 -160 -160 0 -160 0
0 80 0 80 -80 0 -80 0 0 -80 0 -80 -158 0 -158 0 35 72 c34 67 36 78 36 168 0
90 -2 101 -36 168 l-35 72 620 0 621 0 240 -240z"/>
<path d="M3159 3424 c-331 -60 -603 -293 -708 -609 -179 -540 156 -1102 716
-1200 497 -87 971 250 1058 752 47 270 -33 551 -217 761 -207 237 -538 353
-849 296z m356 -169 c206 -56 390 -207 485 -400 59 -120 74 -189 74 -335 0
-146 -15 -215 -74 -335 -96 -195 -278 -344 -490 -401 -89 -25 -291 -25 -380 0
-262 70 -475 282 -547 546 -24 89 -24 289 1 380 80 296 324 514 631 564 56 8
240 -3 300 -19z"/>
</g>
</svg>
