<?xml version="1.0" standalone="no"?>
<!DOCTYPE svg PUBLIC "-//W3C//DTD SVG 20010904//EN"
 "http://www.w3.org/TR/2001/REC-SVG-20010904/DTD/svg10.dtd">
<svg version="1.0" xmlns="http://www.w3.org/2000/svg"
 width="512.000000pt" height="512.000000pt" viewBox="0 0 512.000000 512.000000"
 preserveAspectRatio="xMidYMid meet">

<g transform="translate(0.000000,512.000000) scale(0.100000,-0.100000)"
fill="#000000" stroke="none">
<path d="M155 4796 c-51 -22 -97 -68 -121 -121 l-24 -50 0 -675 c0 -415 4
-689 10 -711 13 -47 72 -114 124 -142 39 -21 53 -22 359 -25 l317 -3 85 -174
c68 -142 90 -177 114 -189 42 -22 103 -20 134 4 14 11 65 97 114 190 l88 170
417 0 416 0 4 -162 c4 -179 13 -212 75 -269 72 -67 35 -64 705 -67 l607 -3 91
-175 c56 -106 101 -181 116 -191 35 -23 97 -22 131 2 19 14 56 76 113 192 l85
170 230 4 c213 4 233 6 270 26 52 28 89 68 114 123 20 43 21 64 21 535 0 290
-4 504 -10 524 -15 54 -59 110 -109 139 l-46 27 -920 5 -920 5 -5 350 c-5 338
-6 351 -27 385 -30 49 -72 86 -115 104 -31 13 -88 16 -326 16 -267 0 -290 -1
-305 -18 -24 -27 -22 -85 4 -108 19 -17 44 -19 301 -24 279 -5 280 -5 299 -29
18 -22 19 -43 19 -352 l0 -329 -107 0 c-122 0 -166 -14 -220 -70 -66 -68 -68
-76 -71 -382 l-3 -278 -442 0 c-418 0 -444 -1 -473 -19 -25 -15 -50 -54 -108
-170 -42 -83 -79 -151 -81 -151 -3 0 -39 67 -80 150 -50 101 -84 155 -102 167
-24 16 -63 19 -361 23 l-334 5 -24 28 -24 28 0 665 0 665 25 24 24 25 720 0
c474 0 729 4 747 10 54 21 72 82 34 120 -20 20 -33 20 -772 20 -598 -1 -759
-3 -783 -14z m4419 -1027 l26 -31 0 -478 0 -479 -24 -28 -24 -28 -250 -5 -251
-5 -28 -27 c-15 -15 -59 -90 -98 -168 -38 -77 -72 -140 -75 -140 -3 0 -39 66
-80 147 -58 114 -83 153 -109 170 l-34 23 -604 0 c-658 0 -652 -1 -673 56 -6
15 -10 220 -10 495 l0 471 29 29 29 29 1075 0 1075 0 26 -31z"/>
<path d="M2681 3594 c-23 -30 -25 -42 -12 -77 15 -39 56 -49 191 -45 114 3
123 5 141 27 25 30 24 72 -1 99 -19 21 -30 22 -160 22 -138 0 -139 0 -159 -26z"/>
<path d="M4143 3442 c-26 -31 -88 -108 -137 -169 l-89 -112 -95 65 c-52 35
-106 64 -119 64 -30 0 -73 -42 -73 -70 0 -39 19 -58 148 -145 181 -122 157
-130 360 123 174 218 184 238 139 280 -14 13 -36 22 -55 22 -26 0 -39 -10 -79
-58z"/>
<path d="M2681 3334 c-23 -30 -25 -42 -12 -77 17 -45 44 -48 388 -45 299 3
322 4 342 22 27 25 28 79 1 106 -19 19 -33 20 -359 20 l-340 0 -20 -26z"/>
<path d="M2698 3105 c-37 -21 -46 -69 -20 -104 l19 -26 341 -3 c331 -2 342 -2
362 18 27 27 26 81 -1 106 -20 18 -42 19 -348 21 -271 2 -330 0 -353 -12z"/>
<path d="M432 4450 c-18 -11 -41 -34 -52 -52 -19 -32 -20 -52 -20 -462 0 -418
1 -429 21 -463 12 -18 39 -43 60 -54 38 -19 56 -20 472 -17 l432 3 33 23 c68
49 67 41 67 507 0 406 -1 421 -21 455 -11 19 -35 45 -54 57 -33 23 -33 23
-469 23 -417 0 -437 -1 -469 -20z m866 -512 l-3 -383 -392 -3 -393 -2 0 385 0
385 395 0 395 0 -2 -382z"/>
<path d="M859 4229 c-40 -15 -49 -48 -49 -175 0 -109 1 -116 25 -139 30 -30
64 -32 99 -4 26 20 26 22 26 144 0 68 -3 131 -6 140 -5 13 -56 47 -66 44 -2 0
-15 -5 -29 -10z"/>
<path d="M831 3784 c-30 -38 -28 -98 4 -129 30 -30 64 -32 99 -4 21 17 26 29
26 68 0 60 -26 91 -75 91 -24 0 -39 -7 -54 -26z"/>
<path d="M1651 4264 c-26 -33 -27 -65 -2 -95 l19 -24 287 -3 c310 -3 325 -1
344 51 10 28 -5 74 -29 87 -11 6 -139 10 -309 10 l-290 0 -20 -26z"/>
<path d="M1655 4005 c-14 -13 -25 -36 -25 -50 0 -14 11 -37 25 -50 23 -24 29
-25 164 -25 83 0 150 5 165 11 49 23 53 104 7 128 -11 6 -82 11 -166 11 -142
0 -147 -1 -170 -25z"/>
<path d="M1679 3779 c-25 -9 -49 -45 -49 -73 0 -7 9 -25 21 -40 l20 -26 158 0
c146 0 159 2 176 20 25 28 23 76 -4 103 -20 20 -32 22 -159 24 -75 1 -149 -2
-163 -8z"/>
<path d="M681 2154 c-164 -44 -289 -173 -332 -344 -21 -84 -19 -460 4 -520 9
-24 15 -45 14 -45 -1 -1 -33 -11 -71 -24 -120 -38 -204 -113 -260 -230 l-31
-66 -3 -219 c-3 -184 -1 -225 13 -262 21 -55 91 -120 142 -131 49 -10 1266
-11 1314 0 50 10 124 77 144 131 14 37 16 77 13 263 l-3 219 -38 76 c-59 119
-160 200 -285 230 l-48 10 18 67 c23 88 25 383 3 486 -39 183 -162 313 -340
360 -73 19 -182 18 -254 -1z m271 -162 c95 -47 166 -144 183 -249 l7 -43 -331
0 -330 0 5 33 c16 89 38 132 98 193 77 77 121 94 236 91 65 -2 96 -7 132 -25z
m185 -539 c-3 -54 -13 -119 -22 -145 -23 -65 -94 -141 -163 -175 -49 -24 -69
-28 -142 -28 -101 1 -154 21 -223 84 -66 61 -96 137 -104 261 l-6 100 333 0
333 0 -6 -97z m-625 -397 c162 -139 434 -139 597 0 42 36 43 37 116 32 84 -6
144 -35 194 -95 53 -64 61 -106 61 -313 0 -177 -1 -188 -21 -206 -20 -18 -45
-19 -644 -19 -599 0 -624 1 -644 19 -20 18 -21 29 -21 206 0 140 4 198 15 229
39 112 134 180 253 181 47 0 59 -4 94 -34z"/>
<path d="M4171 2154 c-164 -44 -289 -173 -332 -344 -21 -84 -19 -460 4 -520 9
-24 15 -45 14 -45 -1 -1 -33 -11 -71 -24 -120 -38 -204 -113 -260 -230 l-31
-66 -3 -215 c-4 -243 1 -271 56 -332 60 -67 80 -72 317 -76 244 -5 286 2 305
48 16 38 -2 88 -34 95 -11 3 -118 6 -237 7 -197 3 -219 5 -238 22 -20 18 -21
29 -21 206 0 207 8 249 61 313 48 58 109 89 189 95 67 4 70 4 111 -31 163
-140 435 -140 598 -1 42 36 43 37 116 32 84 -6 144 -35 194 -95 53 -64 61
-106 61 -313 0 -177 -1 -188 -21 -206 -19 -17 -41 -19 -273 -22 -241 -2 -252
-3 -268 -23 -23 -28 -23 -71 1 -100 l19 -24 249 0 c136 0 264 3 284 8 50 10
124 77 144 131 14 37 16 77 13 263 l-3 219 -37 75 c-60 120 -160 202 -281 229
l-53 12 18 67 c23 88 25 383 3 486 -39 183 -162 313 -340 360 -73 19 -182 18
-254 -1z m271 -162 c95 -47 166 -144 183 -249 l7 -43 -331 0 -330 0 5 33 c16
89 38 132 98 193 77 77 121 94 236 91 65 -2 96 -7 132 -25z m186 -544 c-6
-124 -33 -193 -104 -258 -70 -65 -123 -85 -224 -85 -73 0 -93 4 -142 28 -67
33 -121 90 -155 164 -19 41 -26 77 -30 154 l-6 99 333 0 333 0 -5 -102z"/>
</g>
</svg>
