<?xml version="1.0" standalone="no"?>
<!DOCTYPE svg PUBLIC "-//W3C//DTD SVG 20010904//EN"
 "http://www.w3.org/TR/2001/REC-SVG-20010904/DTD/svg10.dtd">
<svg version="1.0" xmlns="http://www.w3.org/2000/svg"
 width="512.000000pt" height="512.000000pt" viewBox="0 0 512.000000 512.000000"
 preserveAspectRatio="xMidYMid meet">

<g transform="translate(0.000000,512.000000) scale(0.100000,-0.100000)"
fill="#000000" stroke="none">
<path d="M880 4867 c-49 -16 -133 -102 -148 -153 -7 -24 -12 -100 -12 -178 l0
-136 -136 0 c-78 0 -154 -5 -178 -12 -55 -16 -138 -99 -154 -154 -18 -60 -18
-3768 0 -3828 16 -55 99 -138 154 -154 32 -9 354 -12 1360 -12 l1319 0 50 24
c28 12 65 40 83 60 l32 37 88 -35 c48 -20 115 -42 147 -50 431 -110 886 47
1157 398 347 449 308 1075 -92 1476 -98 98 -192 163 -322 225 -120 56 -216 82
-355 97 l-113 12 0 776 0 775 -423 422 -422 423 -1000 -1 c-699 -1 -1011 -4
-1035 -12z m1920 -522 l0 -376 25 -24 24 -25 376 0 375 0 0 -725 c0 -572 -3
-726 -12 -729 -7 -2 -53 -13 -102 -24 -508 -123 -870 -608 -843 -1131 6 -124
36 -261 80 -368 l26 -63 -910 0 -910 0 -24 25 -25 24 0 1871 0 1871 25 24 24
25 936 0 935 0 0 -375z m425 -5 l260 -260 -263 0 -262 0 0 260 c0 143 1 260 3
260 1 0 119 -117 262 -260z m-2505 -1756 c0 -1272 3 -1666 12 -1698 16 -55 99
-138 154 -154 31 -9 278 -12 1000 -13 l959 0 55 -71 c30 -39 90 -100 133 -136
42 -36 77 -69 77 -73 0 -4 -10 -15 -22 -23 -20 -14 -163 -16 -1331 -16 l-1308
0 -24 25 -25 24 0 1871 0 1871 25 24 c23 24 29 25 160 25 l135 0 0 -1656z
m3271 -293 c179 -46 319 -127 449 -260 129 -130 212 -278 257 -457 24 -95 24
-333 0 -428 -46 -185 -125 -324 -262 -461 -137 -137 -275 -215 -461 -262 -103
-26 -343 -23 -445 5 -182 49 -316 127 -449 261 -129 129 -212 277 -257 457
-24 95 -24 333 0 428 46 182 128 328 261 462 158 157 305 231 556 278 59 11
277 -3 351 -23z"/>
<path d="M1225 3415 c-16 -15 -25 -36 -25 -55 0 -19 9 -40 25 -55 l24 -25 631
0 631 0 24 25 c16 15 25 36 25 55 0 19 -9 40 -25 55 l-24 25 -631 0 -631 0
-24 -25z"/>
<path d="M1225 3015 c-16 -15 -25 -36 -25 -55 0 -19 9 -40 25 -55 l24 -25 991
0 991 0 24 25 c16 15 25 36 25 55 0 19 -9 40 -25 55 l-24 25 -991 0 -991 0
-24 -25z"/>
<path d="M1225 2615 c-16 -15 -25 -36 -25 -55 0 -19 9 -40 25 -55 l24 -25 831
0 831 0 24 25 c16 15 25 36 25 55 0 19 -9 40 -25 55 l-24 25 -831 0 -831 0
-24 -25z"/>
<path d="M1225 2215 c-16 -15 -25 -36 -25 -55 0 -19 9 -40 25 -55 l24 -25 671
0 671 0 24 25 c33 32 33 78 0 110 l-24 25 -671 0 -671 0 -24 -25z"/>
<path d="M1225 1815 c-16 -15 -25 -36 -25 -55 0 -19 9 -40 25 -55 l24 -25 551
0 551 0 24 25 c33 32 33 78 0 110 l-24 25 -551 0 -551 0 -24 -25z"/>
<path d="M1225 1415 c-16 -15 -25 -36 -25 -55 0 -19 9 -40 25 -55 l24 -25 511
0 511 0 24 25 c16 15 25 36 25 55 0 19 -9 40 -25 55 l-24 25 -511 0 -511 0
-24 -25z"/>
<path d="M3945 1500 l-340 -340 -120 152 c-66 83 -132 164 -147 179 -34 37
-79 39 -113 4 -48 -47 -40 -64 150 -301 97 -122 185 -223 198 -228 13 -5 35
-6 48 -3 13 4 191 174 402 384 342 343 377 382 377 411 0 44 -38 82 -82 82
-29 0 -65 -32 -373 -340z"/>
</g>
</svg>
