<?xml version="1.0" standalone="no"?>
<!DOCTYPE svg PUBLIC "-//W3C//DTD SVG 20010904//EN"
 "http://www.w3.org/TR/2001/REC-SVG-20010904/DTD/svg10.dtd">
<svg version="1.0" xmlns="http://www.w3.org/2000/svg"
 width="512.000000pt" height="512.000000pt" viewBox="0 0 512.000000 512.000000"
 preserveAspectRatio="xMidYMid meet">

<g transform="translate(0.000000,512.000000) scale(0.100000,-0.100000)"
fill="#000000" stroke="none">
<path d="M775 5111 c-68 -12 -95 -24 -127 -57 -36 -39 -51 -98 -37 -149 9 -33
50 -80 227 -257 l216 -218 -44 -135 -44 -135 -135 -45 -136 -45 -210 209
c-115 115 -225 217 -244 226 -24 12 -48 16 -79 12 -82 -9 -136 -70 -148 -170
-53 -445 196 -848 611 -986 97 -32 257 -54 327 -45 l43 5 320 -320 320 -321
-483 -483 c-430 -430 -482 -486 -482 -514 0 -38 26 -70 63 -79 27 -6 49 14
360 324 183 181 343 335 356 342 60 31 139 -28 126 -95 -4 -23 -121 -146 -503
-528 -273 -274 -507 -500 -519 -503 -59 -15 -113 27 -113 88 0 34 8 47 80 122
89 93 100 124 57 164 -51 48 -65 39 -289 -186 -195 -196 -207 -210 -223 -265
-17 -58 -14 -120 7 -160 6 -12 2 -29 -16 -60 -61 -105 -71 -233 -26 -352 20
-54 41 -79 214 -251 172 -173 197 -194 251 -214 120 -45 247 -35 352 27 31 18
47 22 60 15 40 -21 102 -24 160 -7 58 16 62 21 836 793 l777 777 320 -320 320
-320 0 -102 c0 -540 476 -946 1027 -879 100 12 161 66 170 148 4 31 0 55 -12
79 -9 19 -111 129 -226 244 l-209 210 45 136 45 135 135 44 135 44 218 -216
c180 -179 224 -218 257 -227 87 -23 173 31 197 123 22 85 16 295 -10 394 -109
404 -465 681 -877 682 l-90 0 -465 465 -465 465 876 878 c483 482 882 887 888
899 6 12 45 111 87 220 63 166 75 205 71 242 -8 73 -65 130 -138 138 -37 4
-76 -8 -242 -71 -109 -42 -208 -81 -220 -87 -12 -6 -142 -131 -289 -277 -241
-240 -268 -270 -268 -299 0 -43 30 -73 72 -73 29 0 61 28 293 259 l260 260
189 70 c104 39 191 70 193 68 2 -2 -29 -90 -69 -195 l-72 -191 -998 -998 -998
-998 -122 123 -123 122 653 653 c620 620 652 654 652 688 0 44 -26 70 -70 71
-29 1 -76 -43 -556 -523 l-524 -524 -464 464 -463 463 -6 121 c-3 69 -15 155
-26 198 -81 315 -334 568 -649 650 -86 23 -276 33 -357 20z m340 -171 c131
-41 222 -96 320 -195 69 -68 101 -109 132 -170 71 -138 86 -200 88 -363 l1
-143 490 -490 489 -489 -78 -77 -77 -78 -108 108 c-121 120 -151 136 -224 117
-61 -17 -211 -167 -228 -228 -12 -48 -2 -102 26 -133 24 -27 11 -34 -81 -47
l-80 -11 -365 364 -365 364 -130 -1 c-236 0 -383 59 -545 222 -135 134 -199
264 -219 442 -9 79 -1 221 13 236 4 3 104 -91 224 -210 119 -120 230 -222 245
-228 46 -17 69 -13 239 45 128 42 169 61 189 83 32 36 129 318 129 375 0 21
-6 50 -14 65 -8 15 -107 119 -220 232 -113 113 -206 210 -206 217 0 30 250 25
355 -7z m1487 -2337 c225 -225 408 -412 408 -418 0 -13 -102 -115 -115 -115
-13 0 -825 812 -825 825 0 13 102 115 115 115 5 0 193 -183 417 -407z m-233
-237 l264 -264 -13 -106 c-7 -58 -16 -106 -19 -106 -10 0 -716 709 -711 713 6
6 135 24 180 26 33 1 50 -14 299 -263z m1216 -225 l490 -490 100 6 c460 26
840 -373 791 -831 -5 -40 -12 -66 -19 -66 -7 0 -104 93 -217 206 -113 113
-217 212 -232 220 -15 8 -44 14 -65 14 -53 0 -337 -96 -373 -126 -23 -20 -40
-57 -86 -197 -48 -145 -56 -179 -50 -212 7 -35 35 -67 229 -262 121 -122 218
-225 214 -229 -13 -14 -145 -21 -227 -13 -181 18 -314 82 -451 219 -84 83
-102 108 -142 190 -62 130 -77 199 -77 356 l0 129 -365 365 -364 365 11 80
c13 92 20 105 47 81 31 -28 85 -38 133 -26 60 16 211 167 228 228 19 73 3 103
-117 224 l-108 108 75 75 c41 41 77 75 80 75 2 0 225 -220 495 -489z m-1445
-6 l415 -415 -70 -70 c-62 -63 -71 -69 -80 -53 -5 10 -29 37 -52 60 -73 73
-181 90 -273 43 -19 -10 -267 -252 -551 -537 -479 -481 -517 -521 -529 -566
-27 -99 12 -212 91 -264 21 -14 39 -29 39 -33 0 -13 -80 -80 -107 -91 -14 -5
-35 -7 -47 -3 -29 8 -763 742 -770 770 -3 12 -2 34 4 48 10 27 77 106 90 106
4 0 19 -18 33 -39 52 -79 165 -118 264 -91 45 12 85 50 566 529 285 284 527
532 537 551 9 19 21 54 25 77 14 84 -43 201 -117 239 l-31 16 69 69 c38 38 71
69 74 69 3 0 192 -187 420 -415z m97 -575 c43 -26 53 -76 25 -122 -12 -18
-239 -250 -504 -515 -477 -476 -484 -483 -523 -483 -43 1 -65 13 -83 47 -32
59 -42 47 486 576 273 274 506 503 517 507 31 13 47 11 82 -10z m-1483 -1381
c-8 -13 -75 -29 -119 -29 -77 0 -130 37 -296 206 -176 179 -196 212 -186 308
3 30 11 64 17 76 12 22 27 8 301 -266 158 -158 286 -291 283 -295z"/>
<path d="M1299 3833 c-43 -43 -81 -90 -84 -104 -9 -38 31 -82 75 -82 28 0 44
12 111 80 88 89 97 116 54 158 -42 43 -69 34 -156 -52z"/>
<path d="M3727 1401 c-68 -67 -80 -83 -80 -111 0 -44 44 -84 82 -75 14 3 61
41 104 84 86 87 95 114 52 156 -42 43 -69 34 -158 -54z"/>
<path d="M1306 1411 c-448 -447 -499 -502 -499 -531 0 -18 8 -40 21 -52 12
-13 34 -21 52 -21 29 0 84 51 531 499 453 453 499 502 499 532 0 19 -8 40 -20
52 -12 12 -33 20 -52 20 -30 0 -79 -46 -532 -499z"/>
</g>
</svg>
