<?xml version="1.0" standalone="no"?>
<!DOCTYPE svg PUBLIC "-//W3C//DTD SVG 20010904//EN"
 "http://www.w3.org/TR/2001/REC-SVG-20010904/DTD/svg10.dtd">
<svg version="1.0" xmlns="http://www.w3.org/2000/svg"
 width="512.000000pt" height="512.000000pt" viewBox="0 0 512.000000 512.000000"
 preserveAspectRatio="xMidYMid meet">

<g transform="translate(0.000000,512.000000) scale(0.100000,-0.100000)"
fill="#000000" stroke="none">
<path d="M320 4947 c-49 -16 -133 -102 -148 -153 -18 -60 -18 -4408 0 -4468
16 -55 99 -138 154 -154 60 -17 3128 -17 3188 0 55 16 138 99 154 154 8 28 12
124 12 288 l0 247 -25 24 c-32 33 -78 33 -110 0 l-25 -24 0 -246 0 -246 -25
-24 -24 -25 -1551 0 -1551 0 -24 25 -25 24 0 2191 0 2191 25 24 24 25 1256 0
1255 0 0 -216 c0 -136 4 -231 12 -255 16 -55 73 -118 132 -145 49 -23 61 -24
274 -24 l222 0 0 -829 c0 -798 1 -830 19 -852 27 -33 95 -33 122 0 18 22 19
55 19 909 l0 887 -343 342 -342 343 -1320 -1 c-932 -1 -1330 -4 -1355 -12z
m2905 -447 l180 -180 -158 0 c-154 0 -158 1 -182 25 -24 24 -25 28 -25 180 0
85 1 155 3 155 1 0 83 -81 182 -180z"/>
<path d="M1145 4295 c-16 -15 -25 -36 -25 -55 0 -19 9 -40 25 -55 l24 -25 671
0 671 0 24 25 c33 32 33 78 0 110 l-24 25 -671 0 -671 0 -24 -25z"/>
<path d="M665 3815 c-16 -15 -25 -36 -25 -55 0 -19 9 -40 25 -55 l24 -25 911
0 911 0 24 25 c33 32 33 78 0 110 l-24 25 -911 0 -911 0 -24 -25z"/>
<path d="M2745 3815 c-16 -15 -25 -36 -25 -55 0 -19 9 -40 25 -55 24 -25 26
-25 215 -25 189 0 191 0 215 25 16 15 25 36 25 55 0 19 -9 40 -25 55 -24 25
-26 25 -215 25 -189 0 -191 0 -215 -25z"/>
<path d="M665 3335 c-16 -15 -25 -36 -25 -55 0 -19 9 -40 25 -55 l24 -25 1231
0 1231 0 24 25 c33 32 33 78 0 110 l-24 25 -1231 0 -1231 0 -24 -25z"/>
<path d="M4630 3033 c-31 -12 -73 -44 -143 -112 l-99 -96 -54 3 c-39 3 -65 -2
-96 -17 -30 -14 -265 -243 -775 -753 l-733 -733 -85 -297 c-47 -164 -85 -307
-85 -318 0 -27 43 -70 70 -70 11 0 154 38 318 85 l297 85 698 698 698 697 24
-28 c29 -32 40 -83 30 -134 -6 -32 -40 -72 -231 -264 -209 -210 -224 -228
-224 -261 0 -44 37 -78 84 -78 27 0 59 28 257 228 264 265 274 280 274 412 0
94 -18 142 -77 214 -28 35 -31 44 -31 107 l0 69 95 98 c126 130 151 200 111
317 -43 127 -190 194 -323 148z m151 -172 c51 -52 42 -80 -56 -180 l-84 -86
-63 63 -63 63 86 84 c100 98 128 107 180 56z m-319 -318 c71 -70 128 -135 128
-143 0 -8 -187 -202 -415 -430 l-415 -415 -142 143 -143 142 415 415 c228 228
422 415 430 415 8 0 72 -57 142 -127z m-957 -963 l140 -140 -223 -223 -222
-222 -142 143 -143 142 220 220 c121 121 222 220 225 220 3 0 68 -63 145 -140z
m-473 -661 c-10 -10 -263 -81 -269 -76 -4 5 64 254 74 271 3 4 50 -36 104 -90
54 -54 95 -101 91 -105z"/>
<path d="M666 2859 c-37 -29 -37 -89 0 -118 25 -20 40 -21 216 -21 187 0 189
0 213 25 16 15 25 36 25 55 0 19 -9 40 -25 55 -24 25 -26 25 -213 25 -176 0
-191 -1 -216 -21z"/>
<path d="M1306 2859 c-20 -16 -26 -29 -26 -59 0 -30 6 -43 26 -59 27 -21 31
-21 936 -21 l909 0 24 25 c16 15 25 36 25 55 0 19 -9 40 -25 55 l-24 25 -909
0 c-905 0 -909 0 -936 -21z"/>
<path d="M665 2375 c-16 -15 -25 -36 -25 -55 0 -19 9 -40 25 -55 l24 -25 1231
0 1231 0 24 25 c33 32 33 78 0 110 l-24 25 -1231 0 -1231 0 -24 -25z"/>
<path d="M665 1895 c-16 -15 -25 -36 -25 -55 0 -19 9 -40 25 -55 l24 -25 591
0 591 0 24 25 c33 32 33 78 0 110 l-24 25 -591 0 -591 0 -24 -25z"/>
<path d="M2105 1895 c-16 -15 -25 -36 -25 -55 0 -19 9 -40 25 -55 24 -25 26
-25 215 -25 189 0 191 0 215 25 16 15 25 36 25 55 0 19 -9 40 -25 55 -24 25
-26 25 -215 25 -189 0 -191 0 -215 -25z"/>
<path d="M1770 955 c-36 -8 -122 -43 -195 -79 -71 -36 -152 -71 -178 -77 -108
-26 -208 12 -277 106 -37 50 -44 55 -79 55 -47 0 -81 -33 -81 -77 0 -64 118
-185 216 -222 135 -51 253 -35 449 63 142 71 186 86 256 86 59 0 141 -41 177
-88 51 -66 70 -82 102 -82 40 0 80 39 80 78 0 36 -55 113 -119 165 -89 73
-224 100 -351 72z"/>
</g>
</svg>
