<?xml version="1.0" standalone="no"?>
<!DOCTYPE svg PUBLIC "-//W3C//DTD SVG 20010904//EN"
 "http://www.w3.org/TR/2001/REC-SVG-20010904/DTD/svg10.dtd">
<svg version="1.0" xmlns="http://www.w3.org/2000/svg"
 width="512.000000pt" height="512.000000pt" viewBox="0 0 512.000000 512.000000"
 preserveAspectRatio="xMidYMid meet">

<g transform="translate(0.000000,512.000000) scale(0.100000,-0.100000)"
fill="#000000" stroke="none">
<path d="M1040 5107 c-62 -17 -112 -49 -159 -103 -71 -81 -74 -98 -79 -466
l-4 -328 -270 0 c-259 0 -272 1 -309 22 -65 36 -87 113 -49 175 31 52 51 58
226 63 141 4 165 7 183 24 27 25 28 79 1 106 -18 18 -33 20 -192 20 -160 0
-177 -2 -223 -24 -68 -31 -131 -104 -151 -174 -53 -183 86 -362 281 -362 l42
0 6 -85 c4 -50 14 -103 25 -129 27 -60 86 -123 146 -154 68 -35 187 -38 257
-5 113 51 167 135 183 280 l10 93 543 0 c541 0 543 0 543 -20 0 -52 58 -114
118 -126 27 -6 33 -16 86 -149 31 -78 67 -152 80 -164 25 -23 75 -41 117 -41
26 0 27 -1 31 -82 4 -73 8 -84 32 -105 34 -29 58 -29 92 0 24 21 28 32 32 105
4 81 5 82 31 82 42 0 92 18 117 41 13 12 49 86 80 164 53 133 59 143 86 149
60 12 118 74 118 126 l0 20 898 0 c991 0 959 -2 1043 63 158 121 134 374 -45
470 l-41 22 -925 5 -924 5 -9 36 c-5 20 -24 51 -43 70 l-35 34 -174 3 c-168 3
-173 4 -179 25 -3 12 -6 34 -6 48 0 87 -81 198 -178 246 l-57 28 -655 2 c-497
2 -666 -1 -700 -10z m1350 -159 c58 -29 90 -78 90 -134 l0 -43 -174 -3 -175
-3 -35 -34 c-19 -19 -38 -50 -43 -70 l-9 -36 -428 -5 c-409 -5 -428 -6 -442
-24 -21 -29 -18 -80 7 -102 20 -18 44 -19 445 -22 l424 -3 0 -129 0 -130 -545
0 -545 0 0 324 c0 319 0 324 23 357 12 19 42 44 67 57 l44 22 626 0 626 0 44
-22z m530 -608 l0 -280 -360 0 -360 0 0 280 0 280 360 0 360 0 0 -280z m1981
115 c92 -48 89 -183 -5 -226 -39 -18 -87 -19 -933 -19 l-893 0 0 130 0 130
900 0 c794 0 905 -2 931 -15z m-4101 -469 c0 -59 -4 -79 -22 -106 -33 -48 -83
-72 -139 -67 -92 8 -148 80 -149 190 l0 57 155 0 155 0 0 -74z m1960 -79 c0
-2 -17 -46 -38 -98 l-38 -94 -124 0 -124 0 -38 94 c-21 52 -38 96 -38 98 0 2
90 3 200 3 110 0 200 -1 200 -3z"/>
<path d="M1803 3175 c-99 -30 -185 -105 -227 -194 -20 -44 -21 -61 -24 -476
l-3 -430 -55 -24 c-66 -29 -126 -93 -148 -158 -23 -68 -24 -799 -1 -864 30
-84 114 -160 193 -175 l34 -7 -7 -81 c-3 -44 -9 -91 -12 -103 l-5 -22 -651 -3
-652 -3 -55 -26 c-68 -33 -122 -85 -157 -152 -23 -44 -27 -65 -28 -137 0 -78
3 -90 34 -148 37 -68 83 -110 158 -145 l48 -22 2315 0 2315 0 48 22 c76 35
121 77 158 145 31 58 34 70 33 148 0 72 -4 93 -26 135 -36 69 -91 123 -157
154 l-56 26 -652 3 -651 3 -5 22 c-3 12 -9 59 -13 104 -6 77 -5 83 12 83 37 0
121 48 157 90 66 77 67 88 67 520 0 434 -1 445 -70 523 -24 27 -60 53 -94 68
l-56 24 0 127 c0 125 0 127 -26 147 -33 26 -65 27 -95 2 -23 -18 -24 -26 -27
-154 l-3 -134 -34 -16 c-51 -24 -98 -71 -125 -124 -21 -40 -26 -65 -28 -150
l-4 -101 -34 14 c-49 21 -1218 21 -1268 0 l-34 -14 -4 101 c-3 83 -8 111 -28
150 -27 53 -74 99 -126 125 l-34 16 0 408 c0 346 2 414 15 446 21 49 52 81
100 103 38 17 81 19 745 19 664 0 707 -2 745 -19 92 -42 115 -96 115 -271 0
-126 1 -132 25 -155 30 -31 64 -32 99 -4 l28 22 -4 161 c-3 138 -6 167 -24
207 -26 55 -85 123 -135 155 -86 54 -84 54 -853 53 -559 0 -720 -3 -753 -14z
m-133 -1263 c67 -36 70 -51 70 -383 0 -285 1 -297 21 -323 l20 -26 779 0 779
0 20 26 c20 26 21 38 21 321 0 319 3 343 54 377 64 41 149 25 186 -36 19 -32
20 -49 20 -408 0 -349 -1 -377 -19 -406 -41 -67 16 -64 -1061 -64 -1077 0
-1020 -3 -1061 64 -18 29 -19 57 -19 406 0 358 1 376 20 408 36 58 108 76 170
44z m1498 -382 c42 -26 62 -73 62 -145 l0 -55 -670 0 -670 0 0 55 c0 72 20
119 62 145 32 19 49 20 608 20 559 0 576 -1 608 -20z m-1198 -697 c0 -5 -16
-50 -36 -100 l-36 -93 -99 0 c-91 0 -100 2 -95 18 2 9 8 54 11 100 l7 82 124
0 c68 0 124 -3 124 -7z m1052 -90 l36 -98 -249 -3 c-137 -1 -361 -1 -498 0
l-249 3 36 98 36 97 426 0 426 0 36 -97z m383 15 c3 -46 9 -91 11 -100 5 -16
-4 -18 -95 -18 l-99 0 -36 93 c-20 50 -36 95 -36 100 0 4 56 7 124 7 l124 0 7
-82z m1447 -280 c78 -23 129 -111 114 -194 -9 -47 -68 -111 -114 -124 -51 -14
-4533 -14 -4584 0 -21 6 -51 27 -71 50 -61 67 -62 153 -2 219 19 21 49 43 67
48 50 16 4537 17 4590 1z"/>
</g>
</svg>
