<?xml version="1.0" standalone="no"?>
<!DOCTYPE svg PUBLIC "-//W3C//DTD SVG 20010904//EN"
 "http://www.w3.org/TR/2001/REC-SVG-20010904/DTD/svg10.dtd">
<svg version="1.0" xmlns="http://www.w3.org/2000/svg"
 width="512.000000pt" height="512.000000pt" viewBox="0 0 512.000000 512.000000"
 preserveAspectRatio="xMidYMid meet">

<g transform="translate(0.000000,512.000000) scale(0.100000,-0.100000)"
fill="#000000" stroke="none">
<path d="M1820 5025 c-302 -64 -478 -261 -521 -580 -29 -225 32 -499 154 -682
82 -123 209 -231 322 -275 l40 -16 -45 -6 c-25 -3 -94 -10 -155 -16 -129 -13
-363 -58 -490 -95 -307 -89 -518 -274 -564 -493 -7 -36 -11 -270 -11 -713 l0
-660 25 -24 24 -25 828 0 828 -1 26 -23 c35 -31 45 -51 53 -111 11 -81 25
-112 67 -149 21 -20 44 -36 49 -36 6 0 10 -5 10 -12 0 -7 -68 -158 -151 -337
-165 -353 -164 -351 -107 -394 l28 -21 181 32 c99 18 184 30 189 27 4 -3 43
-67 86 -142 43 -76 91 -150 106 -166 32 -33 68 -35 101 -5 14 13 89 162 171
339 l147 315 61 21 60 20 82 -28 c44 -16 88 -29 97 -29 12 0 47 -70 124 -249
58 -137 115 -257 126 -267 25 -22 73 -22 98 0 10 9 60 84 111 166 79 128 96
149 114 145 125 -29 313 -65 337 -65 35 0 79 39 79 70 0 12 -56 152 -124 311
-100 234 -121 290 -110 300 23 19 53 92 63 158 10 63 12 67 85 135 94 89 103
116 80 236 l-15 82 43 71 c38 64 43 78 43 132 0 54 -5 69 -43 132 l-43 71 15
82 c23 120 14 147 -80 236 -74 70 -75 71 -86 140 -19 126 -50 163 -173 206
-67 24 -72 28 -110 91 -75 122 -100 137 -229 137 l-85 0 -52 46 c-58 51 -120
83 -161 84 -15 0 -58 -11 -96 -25 -38 -14 -80 -25 -94 -25 -34 0 -137 43 -192
80 -69 47 -200 106 -301 135 -165 48 -487 104 -608 106 -39 0 -99 17 -69 18 8
1 44 16 80 34 87 42 232 183 291 283 49 83 93 200 117 310 26 118 24 344 -4
447 -65 239 -225 401 -457 463 -83 22 -283 27 -365 9z m359 -175 c219 -73 325
-245 325 -525 1 -397 -232 -715 -524 -715 -274 0 -500 285 -526 665 -22 311
125 536 385 591 93 19 258 12 340 -16z m196 -1565 c237 -32 465 -89 569 -142
l49 -25 -27 -26 c-24 -25 -35 -27 -130 -32 -93 -5 -106 -8 -140 -33 -20 -16
-49 -52 -65 -80 -46 -82 -56 -92 -103 -106 -68 -20 -131 -59 -156 -95 -12 -18
-27 -62 -33 -97 -15 -92 -24 -109 -88 -160 -89 -72 -106 -129 -80 -261 11 -56
11 -57 -29 -130 -65 -119 -65 -160 4 -270 l36 -59 -13 -84 -13 -85 -418 0
-418 0 0 447 c0 445 0 447 -22 470 -27 29 -77 30 -109 4 l-24 -19 -3 -451 -3
-451 -224 0 -225 0 0 605 c0 681 -2 663 76 765 122 160 426 276 839 320 61 6
119 13 130 15 55 10 511 -5 620 -20z m849 -280 c81 -31 129 -31 204 -4 93 34
92 34 151 -16 81 -69 104 -79 201 -81 47 -1 88 -2 92 -3 4 0 21 -28 39 -61 42
-80 91 -123 172 -149 36 -12 70 -27 75 -34 5 -7 13 -37 17 -67 12 -90 32 -126
107 -194 l70 -63 -11 -52 c-24 -113 -11 -186 50 -273 26 -36 24 -47 -22 -124
l-41 -69 6 -85 c3 -47 8 -97 12 -111 5 -23 -2 -32 -55 -74 -70 -55 -106 -118
-116 -205 -4 -30 -12 -60 -17 -67 -5 -7 -39 -22 -75 -34 -80 -26 -130 -69
-171 -147 l-32 -59 -92 -5 c-105 -6 -137 -18 -213 -84 -27 -24 -55 -44 -61
-44 -6 0 -39 12 -75 26 -77 31 -152 29 -238 -7 -35 -15 -57 -19 -66 -13 -7 5
-38 30 -70 56 -66 53 -113 68 -212 68 l-68 0 -40 72 c-45 80 -91 117 -181 143
-61 18 -69 28 -78 105 -10 78 -40 133 -99 182 -78 63 -76 57 -59 145 17 94 9
138 -44 224 -18 31 -34 61 -34 65 0 5 16 35 35 67 52 85 60 130 42 218 -8 40
-13 78 -10 85 3 7 29 31 58 53 69 52 94 94 109 185 8 40 16 78 20 84 3 6 30
18 59 28 107 35 138 60 189 156 17 32 34 59 37 59 3 1 44 2 91 3 96 2 133 17
210 85 25 22 50 41 56 41 7 0 42 -11 78 -25z m969 -2132 c48 -113 86 -208 83
-210 -2 -2 -63 8 -135 23 -160 32 -154 35 -240 -103 -33 -54 -65 -104 -69
-111 -6 -9 -34 45 -86 165 l-78 178 31 27 c29 26 37 28 119 28 128 0 159 21
244 164 15 25 31 46 35 46 4 0 47 -93 96 -207z m-1470 17 c30 -14 65 -20 124
-20 l81 0 56 -46 c31 -25 56 -47 56 -50 0 -8 -192 -419 -200 -427 -4 -5 -38
44 -75 108 -40 70 -77 121 -91 127 -17 8 -53 5 -143 -11 -67 -11 -127 -21
-135 -21 -9 0 24 82 97 238 l111 239 38 -59 c28 -43 50 -64 81 -78z"/>
<path d="M3170 2675 c-35 -8 -101 -32 -145 -53 -187 -91 -316 -234 -380 -423
-81 -238 -32 -503 128 -698 144 -173 369 -271 596 -258 116 6 192 26 289 75
440 220 534 806 187 1157 -82 83 -178 143 -290 181 -100 33 -281 43 -385 19z
m295 -160 c196 -50 341 -189 411 -395 26 -75 25 -233 0 -310 -62 -185 -185
-316 -356 -378 -88 -32 -221 -40 -314 -18 -207 49 -379 220 -426 424 -29 125
-7 282 53 397 42 79 155 192 230 229 128 64 278 83 402 51z"/>
</g>
</svg>
